<svg xmlns="http://www.w3.org/2000/svg" width="920" height="420" viewBox="0 0 920 420"><rect width="920" height="420" fill="#FAF9F3"/><text x="40" y="48" font-family="Arial,sans-serif" font-size="22" fill="#293B32">Dext / A dependable pair of hands</text><g transform="translate(44,85)"><rect x="8" y="8" width="240" height="240" rx="55" fill="#365F4C"/><path d="M80 90c0-31 20-49 48-49s48 18 48 49H80Z" fill="#FAF9F3"/><path d="M76 88h111c9 0 9 14 0 14H76Z" fill="#A5BCA7"/><path d="M97 113h62v17c0 23-14 38-31 38s-31-15-31-38Z" fill="#FAF9F3"/><path d="M61 213c2-32 23-48 47-49l20 24 20-24c24 1 45 17 47 49Z" fill="#FAF9F3"/><path d="m114 174 14 14 14-14-7 39h-14Z" fill="#A5BCA7"/></g><text x="172" y="378" text-anchor="middle" font-family="Arial,sans-serif" font-size="18" fill="#293B32">1. The everyday worker</text><g transform="translate(336,85)"><rect x="8" y="8" width="240" height="240" rx="55" fill="#365F4C"/><path d="M80 89c0-27 14-43 36-47v47h24V42c22 4 36 20 36 47Z" fill="#FAF9F3"/><rect x="117" y="33" width="22" height="57" rx="9" fill="#A5BCA7"/><rect x="67" y="88" width="122" height="15" rx="7.5" fill="#FAF9F3"/><path d="M97 113h62v17c0 22-14 37-31 37s-31-15-31-37Z" fill="#FAF9F3"/><path d="M61 213c2-28 20-44 43-49l24 24 24-24c23 5 41 21 43 49Z" fill="#FAF9F3"/><path d="M93 171v42m70-42v42" stroke="#365F4C" stroke-width="10"/></g><text x="464" y="378" text-anchor="middle" font-family="Arial,sans-serif" font-size="18" fill="#293B32">2. The builder</text><g transform="translate(628,85)"><rect x="8" y="8" width="240" height="240" rx="55" fill="#365F4C"/><circle cx="128" cy="74" r="31" fill="#FAF9F3"/><path d="M77 150c0-22 19-37 51-37s51 15 51 37l10 45H67Z" fill="#A5BCA7"/><path d="M96 116h15v30h34v-30h15v88H96Z" fill="#FAF9F3"/><rect x="115" y="157" width="26" height="20" rx="4" fill="#365F4C"/><path d="M105 201v15m46-15v15" stroke="#FAF9F3" stroke-width="18" stroke-linecap="round"/></g><text x="756" y="378" text-anchor="middle" font-family="Arial,sans-serif" font-size="18" fill="#293B32">3. The helpful hand</text></svg>