<svg xmlns="http://www.w3.org/2000/svg" width="256" height="256" viewBox="0 0 256 256"><title>Dext The builder</title><rect x="8" y="8" width="240" height="240" rx="55" fill="#365F4C"/><path d="M80 89c0-27 14-43 36-47v47h24V42c22 4 36 20 36 47Z" fill="#FAF9F3"/><rect x="117" y="33" width="22" height="57" rx="9" fill="#A5BCA7"/><rect x="67" y="88" width="122" height="15" rx="7.5" fill="#FAF9F3"/><path d="M97 113h62v17c0 22-14 37-31 37s-31-15-31-37Z" fill="#FAF9F3"/><path d="M61 213c2-28 20-44 43-49l24 24 24-24c23 5 41 21 43 49Z" fill="#FAF9F3"/><path d="M93 171v42m70-42v42" stroke="#365F4C" stroke-width="10"/></svg>